<svg width="24" height="24" viewBox="0 0 24 24" fill="none" xmlns="http://www.w3.org/2000/svg">
<path d="M3.33047 8.9101C3.33047 8.7201 3.40047 8.5301 3.55047 8.3801C3.84047 8.0901 4.32047 8.0901 4.61047 8.3801L11.1305 14.9001C11.6105 15.3801 12.3905 15.3801 12.8705 14.9001L19.3905 8.3801C19.6805 8.0901 20.1605 8.0901 20.4505 8.3801C20.7405 8.6701 20.7405 9.1501 20.4505 9.4401L13.9305 15.9601C13.4205 16.4701 12.7305 16.7601 12.0005 16.7601C11.2705 16.7601 10.5805 16.4801 10.0705 15.9601L3.55047 9.4401C3.41047 9.2901 3.33047 9.1001 3.33047 8.9101Z" fill="#535353"/>
</svg>
