<svg width="25" height="25" viewBox="0 0 25 25" fill="none" xmlns="http://www.w3.org/2000/svg">
<path d="M7.33325 22.5C6.78325 22.5 6.31242 22.3042 5.92075 21.9125C5.52909 21.5208 5.33325 21.05 5.33325 20.5C5.33325 19.95 5.52909 19.4792 5.92075 19.0875C6.31242 18.6958 6.78325 18.5 7.33325 18.5C7.88325 18.5 8.35409 18.6958 8.74575 19.0875C9.13742 19.4792 9.33325 19.95 9.33325 20.5C9.33325 21.05 9.13742 21.5208 8.74575 21.9125C8.35409 22.3042 7.88325 22.5 7.33325 22.5ZM17.3333 22.5C16.7833 22.5 16.3124 22.3042 15.9208 21.9125C15.5291 21.5208 15.3333 21.05 15.3333 20.5C15.3333 19.95 15.5291 19.4792 15.9208 19.0875C16.3124 18.6958 16.7833 18.5 17.3333 18.5C17.8833 18.5 18.3541 18.6958 18.7458 19.0875C19.1374 19.4792 19.3333 19.95 19.3333 20.5C19.3333 21.05 19.1374 21.5208 18.7458 21.9125C18.3541 22.3042 17.8833 22.5 17.3333 22.5ZM6.48325 6.5L8.88325 11.5H15.8833L18.6333 6.5H6.48325ZM5.53325 4.5H20.2833C20.6666 4.5 20.9583 4.67083 21.1583 5.0125C21.3583 5.35417 21.3666 5.7 21.1833 6.05L17.6333 12.45C17.4499 12.7833 17.2041 13.0417 16.8958 13.225C16.5874 13.4083 16.2499 13.5 15.8833 13.5H8.43325L7.33325 15.5H19.3333V17.5H7.33325C6.58325 17.5 6.01659 17.1708 5.63325 16.5125C5.24992 15.8542 5.23325 15.2 5.58325 14.55L6.93325 12.1L3.33325 4.5H1.33325V2.5H4.58325L5.53325 4.5Z" fill="#7D7D7D"/>
</svg>
