<svg width="16" height="16" viewBox="0 0 16 16" fill="none" xmlns="http://www.w3.org/2000/svg">
<rect width="16" height="16" rx="8" fill="white"/>
<path fill-rule="evenodd" clip-rule="evenodd" d="M8.00012 10.2849L7.34834 12.2193C7.08405 13.0024 6.16088 13.2719 5.61475 12.6792C5.4989 12.709 5.37801 12.7126 5.26064 12.6897C5.14327 12.6669 5.0323 12.6182 4.93561 12.5471C4.83892 12.4759 4.75887 12.3841 4.70115 12.2782C4.64343 12.1722 4.60945 12.0547 4.60162 11.9339C3.87705 11.5911 3.84346 10.6186 4.49897 10.1224L6.11497 8.89783L4.09655 8.8691C3.27866 8.85701 2.74111 8.05084 3.12822 7.34218C3.06463 7.23973 3.02404 7.1244 3.00932 7.00432C2.9946 6.88424 3.00611 6.76236 3.04304 6.64728C3.07996 6.53221 3.1414 6.42675 3.22301 6.33836C3.30462 6.24997 3.40441 6.1808 3.51533 6.13576C3.6135 5.33185 4.51651 4.99963 5.18509 5.47699L6.83469 6.65468L6.23741 4.70218C5.99738 3.9134 6.58308 3.14086 7.37335 3.29809C7.4499 3.2051 7.54571 3.13028 7.65399 3.07894C7.76226 3.02759 7.88037 3.00098 7.99993 3.00098C8.1195 3.00098 8.2376 3.02759 8.34588 3.07894C8.45416 3.13028 8.54996 3.2051 8.62651 3.29809C9.41604 3.14086 10.0021 3.9134 9.76246 4.70218L9.16518 6.65468L10.8148 5.47661C11.4834 4.99925 12.386 5.33147 12.4845 6.13576C12.5955 6.18071 12.6953 6.2498 12.777 6.33815C12.8586 6.4265 12.9201 6.53194 12.957 6.64701C12.9939 6.76207 13.0054 6.88395 12.9907 7.00402C12.9759 7.12409 12.9353 7.2394 12.8716 7.3418C13.2588 8.05084 12.7223 8.85663 11.9033 8.86873L9.88527 8.89783L11.5013 10.122C12.156 10.6179 12.1236 11.5907 11.3982 11.9335C11.3904 12.0543 11.3564 12.1718 11.2987 12.2778C11.241 12.3837 11.1609 12.4755 11.0643 12.5467C10.9676 12.6178 10.8566 12.6665 10.7392 12.6894C10.6219 12.7122 10.501 12.7086 10.3851 12.6789C9.83973 13.2711 8.91582 13.0024 8.65152 12.2185L8.00012 10.2849Z" fill="#FD8F9F"/>
<path fill-rule="evenodd" clip-rule="evenodd" d="M8.00024 10.2843V3H8.03571C8.14926 3.00495 8.26053 3.0339 8.36237 3.085C8.4642 3.1361 8.55435 3.20821 8.62701 3.29669C9.40496 3.14551 10.0045 3.90746 9.76183 4.70078L9.16456 6.65328L10.8142 5.47521C11.4827 4.99785 12.385 5.33007 12.4839 6.13436C12.5949 6.17931 12.6947 6.2484 12.7763 6.33675C12.858 6.4251 12.9195 6.53054 12.9564 6.64561C12.9933 6.76067 13.0048 6.88255 12.9901 7.00262C12.9753 7.12269 12.9347 7.238 12.871 7.3404C13.2585 8.04944 12.7217 8.85523 11.9027 8.86733L9.88465 8.89643L11.5007 10.1206C12.1554 10.6165 12.1226 11.5893 11.3976 11.9321C11.3898 12.0529 11.3558 12.1704 11.2981 12.2764C11.2404 12.3823 11.1603 12.4741 11.0636 12.5453C10.9669 12.6164 10.856 12.6651 10.7386 12.688C10.6212 12.7108 10.5003 12.7072 10.3845 12.6775C9.83911 13.2701 8.9152 13.001 8.6509 12.2171L8.00024 10.2843Z" fill="#FD697F"/>
<path d="M8.75301 9.02668C9.16922 8.60528 9.16922 7.92206 8.75301 7.50067C8.33681 7.07927 7.662 7.07927 7.2458 7.50067C6.82959 7.92206 6.82959 8.60528 7.2458 9.02668C7.662 9.44807 8.33681 9.44807 8.75301 9.02668Z" fill="#FFDA44"/>
<path fill-rule="evenodd" clip-rule="evenodd" d="M7.99951 7.18408C8.27876 7.18937 8.54482 7.3054 8.74046 7.50723C8.9361 7.70905 9.0457 7.98054 9.0457 8.26332C9.0457 8.54611 8.9361 8.8176 8.74046 9.01942C8.54482 9.22124 8.27876 9.33727 7.99951 9.34257V7.18408Z" fill="#FFB655"/>
</svg>
